<?xml version="1.0" standalone="no"?><!DOCTYPE svg PUBLIC "-//W3C//DTD SVG 1.1//EN" "http://www.w3.org/Graphics/SVG/1.1/DTD/svg11.dtd"><svg t="1771597920358" class="icon" viewBox="0 0 1027 1024" version="1.1" xmlns="http://www.w3.org/2000/svg" p-id="9974" xmlns:xlink="http://www.w3.org/1999/xlink" width="200.5859375" height="200"><path d="M1025.31114 459.627259l-7.721156-50.843079-12.674349-49.094893-17.336178-47.201024-21.560962-44.724427-25.785745-42.247831-29.573481-39.334187-33.215536-36.420543-36.420543-33.069854-39.625552-29.427799-42.24783-25.785745-45.015792-21.415279-47.201024-17.190497L617.692417 10.197752l-51.134443-7.721155-52.445582-2.476597-52.591265 2.622279-51.134443 7.721155-49.240575 12.674349-47.201024 17.190497-45.015792 21.560962L226.53578 87.409304l-39.625551 29.427799-36.420543 33.069854-33.215536 36.420543-29.427799 39.334187-25.785745 42.247831-21.706644 44.578745-17.336179 47.055342-12.674349 49.094893-7.721155 50.988761-2.622279 52.445582 2.622279 52.445583 7.721155 50.843078 12.674349 49.094893 17.336179 47.055342 21.560962 44.724427 25.785745 42.247831 29.573481 39.334187 33.215536 36.274861 36.420543 33.069854 39.625551 29.427799 42.393513 25.640062 45.015792 21.560962 47.201024 17.190497 49.240575 12.674349 51.134443 7.721155 52.591265 2.622279 52.591264-2.622279 51.134443-7.721155 49.240575-12.674349 47.201024-17.190497 45.015792-21.560962 42.393513-25.640062 39.479869-29.427799 36.420543-33.069854 33.069854-36.420543 29.573481-39.334187 25.785745-42.247831 21.560962-44.724427 17.336178-47.055342 12.674349-49.094893 7.721156-50.843079 2.622279-52.445582-2.622279-52.2999z m-12.528667 103.725707l-7.575473 49.531939-12.382985 47.929436-16.899132 45.744202-21.123916 43.704652-25.057333 41.082373-28.845071 38.460094-32.341442 35.400769-35.400769 32.19576-38.605776 28.699388-41.373737 24.911652-43.850335 20.978233-46.181249 16.75345-48.075117 12.237303-49.823303 7.575473-51.280126 2.622279-51.280125-2.622279-49.823303-7.575473-48.075118-12.237303-46.035567-16.75345-43.850334-20.978233-41.373737-24.911652-38.16873-28.699388-35.54645-32.19576-32.341443-35.400769-28.84507-38.460094L73.569498 750.263195 52.445583 706.558543l-16.899133-45.889885-12.237302-47.929435-7.575473-49.531939L13.111396 512.072841l2.622279-51.134443 7.575473-49.531939 12.237302-47.929435L52.445583 317.587139l21.123915-43.704652 25.057334-41.228055 28.84507-38.460094 32.341443-35.400769 35.54645-31.904396 38.605776-28.699388L275.339309 73.132451l43.850334-20.978233 46.035567-16.75345 48.075117-12.382985 49.823304-7.575473 51.280125-2.622279 51.280125 2.622279 49.823304 7.575473 48.075117 12.382985 46.035567 16.75345 43.704652 20.978233 41.373737 25.057334 38.460094 28.699388 35.546451 32.195761 32.341442 35.400768 28.845071 38.460094 25.057334 41.228055 21.123915 43.704652 16.899132 45.889885 12.237303 47.929435 7.575473 49.531939 2.622279 51.134443-2.622279 50.988761z" fill="#005BAC" p-id="9975"></path><path d="M559.710912 965.872813l-0.145682-0.291365v-0.145682l-0.145682-0.291364-0.145683-0.145682-0.145682-0.145683-0.291364-0.145682-0.145682-0.145682-0.145682-0.145682h-0.145683l-0.291364-0.145682h-0.582729l-6.992744 0.437046-4.807512 0.437047-14.276853 0.874093 0.291365-1.31114 0.291364-1.311139 0.437046-0.874093 0.437047-0.728411 0.582729-1.019775 1.748186-1.748187 1.602504-1.311139 3.35069-2.476597 7.575473-4.807512 3.496372-2.622279 1.602504-1.456822 1.456822-1.602504 1.165457-1.602503 0.728411-1.31114 0.582728-1.456822 0.437047-1.165457 0.145682-1.165458 0.145682-1.165457v-1.31114l-0.291364-2.913643-0.728411-2.476597-0.874093-2.330915-0.874093-1.456821-1.019775-1.456822-1.165458-1.165458-1.165457-1.019775-1.31114-0.874093-1.456821-0.728411-2.039551-0.874093-2.03955-0.437046-2.185233-0.437047h-2.185232l-2.039551 0.145682-2.185232 0.437047-3.059326 0.874093-1.456822 0.728411-1.311139 0.728411-1.165458 0.874093-1.165457 1.019775-1.602504 1.602504-0.582729 0.874093-0.582728 1.019775-0.874093 2.039551-0.437047 1.893868-0.437047 2.622279-0.145682 5.681605 1.165458-0.291365 1.019775-0.145682h4.370465l0.145682-2.476597 0.291365-2.185232 0.582728-1.893869 0.437047-1.311139 0.728411-1.165458 1.019775-1.456821 0.582729-0.728411 0.582728-0.582729 1.019776-0.582729 1.165457-0.582728 1.019775-0.437047 1.165458-0.291364 0.874093-0.145682h0.874093l1.748186 0.145682 1.602504 0.437046 1.602504 0.728411 1.019775 0.728411 1.019775 0.728411 0.874093 1.019775 0.728411 1.165458 0.582729 1.165457 0.582728 1.31114 0.145682 1.456821v2.185233l-0.145682 0.728411-0.291364 0.728411-0.291364 0.72841-0.582729 1.019776-0.582729 0.874093-0.874093 1.165457-2.330915 2.330915-13.40276 9.906388-2.622279 2.330915-0.874093 1.311139-0.728411 1.019775-0.582728 1.019776-0.874093 2.185232-1.456822 4.66183-0.437047 2.330914V971.7001l0.145683 0.145682 0.145682 0.291364v0.145682l0.145682 0.145682v0.145683l0.145682 0.145682h0.145682l0.291365 0.145682H526.05833l2.622279-0.291364h1.019775l7.866838-0.437047 6.118651-0.437046 6.118651-0.437047 9.906388-0.874093 0.145682-2.330915v-1.165457l-0.145682-0.728411zM615.944231 945.768673l-0.291364-1.165458-0.437047-1.165457-0.582729-1.165458-0.582728-1.019775-0.874093-0.874093-0.728411-0.874093-0.728411-0.582729-0.582729-0.291364-0.728411-0.437046-2.767961-1.165458-1.311139-0.582728 1.165457-0.874094 0.874093-0.874093 0.874093-0.874093 0.582729-1.165457 0.582728-1.165457 0.437047-1.602504 0.145682-1.165458 0.145682-2.330914-0.145682-1.748187-0.291364-1.602503-0.582729-1.456822-0.437046-1.165458-0.582729-0.874093-0.728411-1.019775-0.728411-0.728411-0.728411-0.728411-0.874093-0.72841-1.748186-1.165458-1.893868-0.728411-1.893868-0.582728-2.039551-0.437047-3.059325-0.145682-3.205008 0.145682-2.913644 0.728411-2.767961 1.165457-1.748186 1.019776-1.602504 1.165457-1.31114 1.311139-0.874093 1.165458-0.728411 1.165457-0.72841 2.039551-0.582729 1.893868-0.291364 2.476597v1.748186l0.291364 3.642054 5.827287-1.165457 0.145682-0.145682h0.145682V931.200455l0.145682-0.291364v-1.019775l0.437047-2.913644 0.291364-1.602504 0.582729-1.165457 0.437046-0.582729 0.291365-0.582728 0.728411-0.874094 1.019775-0.72841 0.728411-0.437047 0.874093-0.437046 1.165457-0.437047 1.456822-0.291364 1.748186-0.145682h2.330915l1.019775 0.291364 1.019775 0.437046 1.019775 0.437047 0.728411 0.582729 0.582729 0.582728 0.582729 0.437047 0.437046 0.728411 0.437047 0.582728 0.437046 1.019776 0.291365 1.019775 0.291364 1.019775v1.165457l-0.145682 1.019776-0.291365 1.165457-0.291364 0.728411-0.437046 0.582729-0.582729 0.874093-0.728411 0.874093-1.019775 0.874093-0.874093 0.437046-1.019775 0.437047-0.874094 0.291364-3.933418 0.728411-2.039551 0.437047 0.874093 5.681604 5.244559-0.874093h1.748186l0.874093 0.145682 1.311139 0.291365 1.31114 0.437046 1.165457 0.437047 0.728411 0.582729 0.874093 0.437046 0.874093 0.874093 0.437047 0.582729 0.437046 0.582728 0.291365 0.582729 0.291364 0.582729 0.291364 1.019775 0.145683 1.019775 0.145682 1.019776-0.145682 2.03955-0.437047 1.748186-0.728411 1.456822-0.582729 1.019775-0.72841 1.019775-0.874093 0.874093-1.019776 0.728411-1.019775 0.582729-1.019775 0.437046-1.602504 0.582729-1.602504 0.291364-1.602504 0.145683h-1.602504l-1.456822-0.291365-1.602503-0.582728-0.728411-0.437047-0.728411-0.437047-0.728411-0.437046-0.728411-0.582729-0.728411-0.874093-0.728411-1.019775-0.437046-0.728411-0.291365-0.874093-0.291364-1.165457-0.291364-1.165458-0.145682-1.456821-6.992745 0.874093 0.582729 3.35069 0.582729 1.602504 0.582728 1.602503 0.728411 1.456822 0.874093 1.456822 0.874093 1.019775 0.874093 0.874093 0.874093 0.874093 1.019776 0.728411 1.311139 0.582729 1.456822 0.582728 1.602504 0.437047 1.456822 0.145682 1.748186 0.145682 3.496372-0.145682 3.496372-0.582729 3.496372-1.019775 3.059326-1.456821 2.767961-1.748187 1.165458-1.019775 1.019775-1.165457 0.874093-1.165458 0.874093-1.602503 0.582729-1.602504 0.582728-2.185233 0.145682-1.456822 0.145683-3.205008-0.145683-1.165457zM436.318111 913.135866l-0.291365-0.145682-0.291364 0.145682h-0.582729l-0.291364 0.145682-0.437047 0.291364-0.291364 0.145682-0.437046 0.437047-0.582729 0.582729-1.019775 1.311139-1.31114 1.456822-0.582729 0.582729-1.019775 0.874093-0.437046 0.291364-0.874093 0.437047-1.019776 0.291364-1.165457 0.291364H422.623986l-4.370465-0.437046-0.874093 5.244558 7.429791 1.456822 4.370465 0.728411v1.165457l-0.291364 2.622279-1.748186 7.575473-4.953194 24.76597 6.992744 1.311139v-1.456821l0.582729-2.913644 1.893868-8.74093 5.244558-26.07711 1.748186-8.595248 0.291365-1.748186V913.864277l-2.330915-0.728411zM500.709632 933.385688l-0.874094-2.622279-0.874093-1.893869-1.019775-1.602503-1.748186-2.185233-2.03955-1.748186-1.602504-1.165458-1.748186-0.874093-1.748186-0.72841-1.893869-0.437047-2.913643-0.291364-2.913644 0.145682-2.767961 0.728411-2.622279 1.165457-1.31114 0.728411-1.165457 0.874093-1.165457 1.019775-1.019776 1.019775-1.311139 1.602504-1.165458 1.748186-1.165457 2.62228-0.728411 3.059325-0.291364 3.35069 0.145682 2.476597 0.437047 2.185233 0.72841 2.185232 0.874093 1.893869 1.165458 1.748186 1.311139 1.602504 1.602504 1.456821 1.602504 1.165458 1.748186 1.019775 1.893869 0.728411 1.893868 0.437046 2.03955 0.291365h2.039551l2.03955-0.291365 1.31114-0.437046 1.311139-0.437047 1.31114-0.582728 1.311139-0.728411 1.31114-0.874093 1.165457-1.019775-0.437046 2.913643-0.874093 2.913644-1.165458 2.913643-1.602504 2.767961-1.748186 2.185233-1.019775 1.019775-1.456822 1.165458-1.311139 0.72841-1.31114 0.437047-0.874093 0.145682-1.019775 0.145682-1.31114-0.145682-1.456821-0.291364-1.456822-0.582729-1.019775-0.582729-0.874093-0.728411-0.728411-0.72841-0.582729-0.874093-0.437046-0.728411-0.291365-0.728411-0.874093-2.622279-0.291364-0.582729-0.145682-0.291364-0.145682-0.145683-0.145683-0.145682-5.972969-0.728411-0.291364 1.019776 0.291364 1.456821 0.291365 1.456822 0.437046 1.31114 0.582729 1.165457 0.728411 1.165457 1.165457 1.602504 1.31114 1.456822 1.165457 0.874093 1.165457 0.874093 1.31114 0.728411 1.31114 0.582729 1.893868 0.582728 1.893868 0.291365 2.039551 0.145682 2.03955-0.145682 2.03955-0.437047 2.039551-0.728411 2.622279-1.311139 2.476597-1.893868 2.330915-2.476597 2.185232-2.913644 1.893869-3.496372 1.893868-5.535923 0.874093-4.224783 0.437046-4.807511 0.145683-5.244559-0.291365-3.35069-0.582728-2.913643z m-6.70138 5.972969l-0.437047 2.476597-0.437047 1.165457-0.437046 1.165458-0.437047 0.874093-0.582728 0.874093-0.728411 0.728411-0.582729 0.437046-0.582729 0.437047-0.874093 0.582728-0.874093 0.437047-1.019775 0.291364-1.019775 0.145682-1.019775 0.145683h-1.31114l-2.622279-0.145683-1.602504-0.437046-0.728411-0.291364-0.728411-0.437047-0.582728-0.437046-0.582729-0.437047-0.728411-0.874093-0.728411-0.874093-0.728411-1.31114-0.582728-1.311139-0.291365-1.456822-0.145682-1.165457v-1.165458l0.145682-2.330914 0.582729-2.185233 0.874093-2.185233 0.728411-1.311139 0.874093-1.165458 1.019775-1.019775 0.874093-0.582729 1.019775-0.582728 0.728411-0.291365 0.728411-0.145682 0.874093-0.145682 0.874093-0.145682h2.185233l1.165457 0.145682 1.602504 0.291364 1.165458 0.437047 1.165457 0.582729 0.874093 0.72841 0.728411 0.874094 0.437046 0.582728 0.437047 0.728411 0.728411 1.456822 0.437046 1.602504 0.145683 1.311139 0.145682 1.31114-0.145682 2.622279zM341.479016 883.27102v-0.145682l-0.291365-0.145682-0.145682-0.291365-0.437047-0.437046-1.019775-0.728411-1.019775-0.582729-0.874093-0.437046-0.874093-0.291365-0.291364-0.145682h-0.291365v0.145682h-0.145682l-0.145682 0.145683h-0.145682l-0.291365 0.291364-0.291364 0.437046-0.728411 0.728411-1.456822 2.476597-2.330914 4.224783-15.442311 28.262342-2.185232-42.102148v-4.807512l-0.145683-1.019775v-0.582729l-0.145682-0.437046-0.291364-0.437047-0.145682-0.291364-0.145682-0.291365-0.291365-0.291364-0.291364-0.145682-0.728411-0.582729-1.019775-0.582728-2.476597-1.31114-0.874093-0.437047-0.437047-0.145682-0.291364-0.145682h-1.019775v0.145682h-0.145682l-0.145683 0.145682-0.145682 0.291365-0.874093 1.456822-5.827287 10.197752-15.005264 27.679613-2.767961 5.39024-0.291364 0.728411v0.291364l5.972969 3.059326 7.138426-12.674349 13.839807-24.76597 2.622279 46.035567 0.145682 3.933419v0.145682l0.145682 0.145682 0.145682 0.145682 0.291365 0.437047 1.165457 0.728411 3.059326 1.748186 2.330915 1.019775 25.203016-45.744202v-0.145683l-0.145682-0.145682zM743.270451 895.508323l-0.874093-2.622279-17.044814-31.030303h-0.291365l-0.145682-0.145683h-0.145682l-0.145682 0.145683h-0.291365l-0.291364 0.145682-0.874093 0.291364-1.893868 1.019775-1.748186 1.165458-0.728411 0.728411-0.145682 0.145682-0.145683 0.145682 1.019776 1.311139 1.748186 2.913644 4.807511 9.177977 5.244559 9.615023 3.787736 6.992745 0.728411 1.602504 0.582729 1.748186 0.437046 2.03955v1.165457l-0.145682 1.602504-0.145682 1.31114-0.437047 1.165457-0.874093 1.748186-0.72841 1.019776-1.019776 1.165457-1.019775 1.019775-1.311139 1.165458-1.456822 1.019775-1.748186 0.874093-1.602504 0.728411-1.165458 0.291364-1.165457 0.291364h-2.185233l-1.165457-0.145682-1.019775-0.291364-1.019775-0.437047-1.31114-0.72841-1.165457-0.874093-1.748186-1.456822-1.602504-1.602504-1.456822-1.893868-4.224783-6.847063-7.429791-14.713899-3.35069-5.972969-1.748186-2.476597-6.555698 3.642054 2.767961 5.535923 6.264334 10.926163 7.866837 13.985488 2.913644 3.787737 1.456821 1.748186 1.602504 1.456822 1.748186 1.165457 1.748187 1.165458 1.456821 0.582728 1.456822 0.437047 1.165457 0.145682 1.31114 0.145682 2.476597-0.145682 1.893868-0.291364 1.893868-0.582729 2.62228-1.019775 2.913643-1.456822 3.059326-1.893868 2.476597-1.748186 2.03955-2.039551 1.893868-2.185232 1.165458-1.748186 0.728411-2.039551 0.582728-1.456822 0.437047-1.602504 0.145682-1.602503 0.145682-1.748187-0.291364-2.767961zM818.442453 857.193911l-1.019776-1.456822-5.39024-6.847062-25.640063-31.321667H785.518281l-0.291364 0.145682-0.437046 0.145682-0.728411 0.437047-1.019776 0.874093-1.019775 0.874093-0.437046 0.582728-0.291365 0.291365-0.145682 0.291364v0.874093l0.291365 0.437047 1.456821 2.03955 5.681605 6.992744 7.284109 9.032295 11.071845 13.548442-2.03955-0.437046-6.410016-2.185233-27.388249-9.906388-7.284108-2.185232-2.62228-0.728411-1.311139-0.145682h-0.728411l-0.145682 0.145682-1.893868 1.311139-2.330915 2.039551-0.728411 0.874093-0.291364 0.291364v0.291365l-0.145683 0.145682v0.291364l0.145683 0.145682 0.145682 0.291365 0.291364 0.582728 1.019775 1.456822 5.535923 6.847062 18.938682 23.45483 5.244559 6.555698 0.874093 0.874093h0.145682v0.145682h0.728411l0.145682-0.145682 0.437046-0.145682 0.291365-0.145682 0.728411-0.437047 1.165457-0.728411 0.874093-1.019775 0.582729-0.582729 0.145682-0.291364 0.145682-0.291364 0.145682-0.145682v-0.728411l-0.291364-0.437047-1.456822-2.03955-5.681605-6.847062-6.992744-8.740931-7.866837-9.469341-3.496372-4.953194 47.055342 16.025039h0.145682l0.291364-0.145682 0.437047-0.145682 1.019775-0.728411 2.476597-1.748186 0.874093-0.874093 0.582729-0.582729 0.145682-0.145682 0.145682-0.145682v-0.582729l-0.145682-0.145682zM791.928297 742.250676l20.832551-27.825295 18.064589-29.864846 15.150947-31.613032 12.09162-33.215535 8.886613-34.672358 5.535922-35.983497 1.893868-37.003272-1.893868-37.003272-5.535922-35.983497-8.886613-34.672357-12.09162-33.215536-15.150947-31.613032-18.064589-29.864845-20.832551-27.825296-23.309148-25.640062-25.640062-23.309148-27.825296-20.832551-29.864845-18.064589-31.613032-15.150947-33.215536-12.237302-34.672357-8.886613-35.983497-5.39024-37.003272-1.893868-37.003272 1.893868-35.983497 5.39024-34.672358 8.886613-33.215535 12.237302-31.613032 15.150947-29.864846 18.210271L282.623417 233.091478l-25.785745 23.309148-23.309147 25.640063-20.686869 27.825295-18.06459 29.864845-15.150946 31.613032-12.237302 33.215536-8.886613 34.672357-5.39024 35.983497-1.893869 37.003272 1.893869 37.003272 5.39024 35.983497 8.886613 34.81804 12.237302 33.215536 15.150946 31.613031 18.06459 29.864846 20.832551 27.679613 23.309148 25.640063 25.640062 23.309147 27.825295 20.832551 29.864846 18.06459 31.613032 15.150946 33.215535 12.09162 34.672358 8.886613 35.983497 5.39024 37.003272 1.893869 37.003272-1.893869 35.983497-5.535922 34.672357-8.886613 33.215536-12.09162 31.613032-15.150946 29.864845-18.06459 27.825296-20.832551 25.640062-23.309148 23.309148-25.640062z m-53.902404 43.121923l-27.242567 20.395505-29.136435 17.773225-31.030303 14.859582-32.632807 11.945938-33.943946 8.74093-35.255086 5.390241-36.274861 1.893868-36.274862-1.893868-35.109404-5.390241-33.943946-8.74093-32.632807-11.945938-31.030303-14.859582-29.136435-17.773225-27.242566-20.395505-25.203016-22.872101-22.872102-25.057334-20.395504-27.242566-17.481861-29.136435-14.859582-30.884621-11.945938-32.632807-8.74093-33.943947-5.244559-35.109403-1.893868-36.274862 1.893868-36.274861 5.390241-35.109404 8.74093-33.943946 11.945939-32.632807 14.859581-31.030303 17.773225-29.282117 20.395505-27.242567 22.872101-25.203016 25.203016-22.872101 27.242567-20.395505 29.136434-17.773225 31.030303-14.859582 32.632807-11.945938 33.943947-8.74093 35.109404-5.390241 36.274861-1.893868 36.274861 1.893868 35.255086 5.390241 33.943947 8.74093 32.632807 11.945938 31.030303 14.859582 29.136435 17.773225 27.242566 20.395505 25.203016 22.872101 22.872102 25.203016 20.395504 27.242567 17.773225 29.136434 14.859582 31.030303 11.945938 32.632807 8.740931 33.943947 5.39024 35.109404 1.893868 36.274861-2.330914 36.274861-5.390241 35.109404-8.74093 33.943947-11.945939 32.632807-14.859581 30.884621-17.773226 29.136434-20.395504 27.242567-22.872101 25.203016-25.203016 22.872101zM281.895006 871.762128l1.31114-1.019775 1.165457-1.311139 1.165458-1.456822 1.602504-2.622279 0.582728-1.165458 0.582729-1.893868 0.291364-1.31114 0.145683-1.311139-0.145683-1.893868-0.437046-1.748186-0.437047-1.165458-0.582728-1.165457-0.874093-1.456822-2.185233-2.622279-4.079101-3.642054-9.032295-6.70138-8.012519-5.97297-2.476597-1.602503-0.582729-0.291365h-0.291364l-1.165458 1.893868-4.224783 5.681605-18.064589 24.037559-6.264334 8.74093-0.728411 1.165458-0.145682 0.437046-0.145682 0.145682V874.384407l0.145682 0.145683 0.291365 0.437046 0.291364 0.291364 0.582729 0.582729 1.602504 1.165458 0.874093 0.437046 0.874093 0.291364h1.456821l0.145683-0.145682 12.674349-17.336178 12.965713 8.449566 3.496372 3.205007 0.728411 0.874094 0.291365 0.437046 0.437046 1.019775 0.291364 1.165458 0.145683 1.165457v1.165457l-0.145683 1.165458-0.437046 1.165457-0.582729 1.31114-1.602504 2.622279-5.098876 7.575473-0.728411 1.456822-0.145682 0.582728-0.145682 0.291365v1.165457l0.145682 0.145682 0.874093 0.728411 3.933419 2.913644 1.165457 0.582728 0.437047 0.145683h0.437046V899.150377l0.145683-0.437047 0.145682-2.476596 0.145682-0.437047v-0.437047l1.893868-3.205007 4.079101-5.681605 1.165457-1.893868 0.437047-1.019776 0.582729-1.456821 0.291364-1.165458 0.145682-1.311139v-1.748186l-0.145682-1.165458-0.291364-1.311139-0.437047-1.31114 3.059326-0.145682 1.456821-0.291364 2.039551-0.582729 1.456822-0.582729 1.456821-0.728411z m-2.185232-8.449566l-0.728411 1.019775-0.874093 0.874094-0.874093 0.874093-0.728411 0.582728-0.728411 0.437047-1.311139 0.582728-1.456822 0.291365h-1.456822l-0.728411-0.145682-1.602504-0.437047-1.019775-0.437046-2.330915-1.165458-3.496372-2.330915-6.70138-5.098876-2.913643-2.185232-1.31114-0.728411 0.145682-0.291364 0.291365-0.582729 1.456821-2.330915 5.535923-7.284109 2.476597-3.496372 1.165457-0.874093 9.906388 7.429791 4.66183 3.642054 1.456821 1.165458 0.582729 0.728411 0.582729 0.72841 0.437046 0.728411 0.437047 0.728411 0.291364 0.582729 0.145682 0.582729 0.145683 0.874093v1.748186l-0.145683 0.728411-0.291364 1.019775-0.437047 1.019775-0.582728 1.019775zM226.390098 833.302034l-8.74093-8.74093-6.847062-6.555698 0.582728-0.437046 1.602504-1.456822 6.118651-6.264334 1.748187-1.602503 0.582728-0.582729 0.291365-0.145682 0.145682-0.145683h0.291364l0.291364 0.145683 0.437047 0.291364 1.31114 1.019775 9.032294 8.740931 9.177977 8.74093 1.31114 1.019775 0.437046 0.291365 0.291365 0.145682H244.891734l0.145682-0.145682h0.291365l0.145682-0.145683 0.437046-0.291364 0.582729-0.582729 1.019775-1.311139 0.437047-0.728411h0.145682v-0.291364l0.145682-0.145683V823.687011l-0.145682-0.291364-0.145682-0.437047-0.145682-0.145682-0.291365-0.582729-0.582728-0.582728-1.019776-1.165458-3.059325-2.767961-21.269598-20.10414-0.145682-0.145682h-0.582728l-0.291365 0.145682h-0.145682l-0.145682 0.145682-0.291364 0.291364-0.582729 0.437047-34.380993 36.129179-0.145682 0.145682v0.291365l0.145682 0.145682v0.145682l0.145682 0.291364 0.291364 0.291365 0.437047 0.72841 1.602504 1.748187 2.767961 2.767961 17.044814 16.316403 2.330915 2.330915 1.456822 1.165457 0.728411 0.437047h0.145682l0.291364 0.291364h0.728411l0.145682-0.145682 0.291365-0.145682 0.437046-0.291364 1.165458-1.019776 0.72841-0.874093 0.145683-0.437046 0.437046-0.437047v-0.291364l0.145682-0.291364v-0.582729l-0.145682-0.145682-0.582729-0.874093-4.661829-4.66183-16.899132-16.025039 0.582728-0.437046 1.748187-1.602504 6.118651-6.555698 2.476597-2.330915 0.437046-0.291364 0.145682-0.145683 0.145683-0.145682h0.728411l0.291364 0.145682 0.291364 0.145683 0.582729 0.437046 1.602504 1.31114 2.185232 2.476597 4.807512 4.370465 7.284109 7.284109 2.476597 2.03955 1.165457 0.728411 4.370465-4.807512z" fill="#005BAC" p-id="9976"></path><path d="M802.417414 678.441884l2.330914-4.370466 0.291365-1.019775 0.145682-0.291364-40.499644 10.197752-46.90966 7.429791-23.600513 1.456822-14.713899 0.874093h-28.408024l-22.580737-1.31114-10.489117-1.019775-15.150946-4.516148-34.380993-10.78048-58.709916-21.269598-39.188504-16.607768-22.72642-6.264333-23.017783-4.516147-12.382985-1.602504-6.264333-0.437047-12.674349-0.874093h-17.336179l-13.985489 0.874093-11.363209 1.31114-18.210272 2.767961-17.918907 4.370465-18.355954 5.972969-35.546451 14.568218-20.10414 8.449566-9.469341 4.953194-4.516147 3.205008-2.330915 2.03955-1.165458 1.602504-0.437046 0.728411-0.437047 0.582728v1.019776l0.291365 0.874093 0.874093 1.893868 2.622279 4.953194 10.926163 17.481861 2.622279 3.642054 0.582729 0.582729 0.291364 0.291364h0.145682l0.145682 0.145682h0.145683l0.437046-0.145682h0.145682l0.582729-0.291364 2.622279-1.165458 11.654574-7.138426 25.348698-12.820031 26.514156-10.489117 20.10414-5.39024 40.791009-6.118652 28.262341-2.622279 10.05207 0.145682 20.395505 2.476597 20.541186 4.370466 39.479869 11.945938 20.686869 6.992744 5.827287 2.185233 0.728411 0.437046 0.145682 0.145682 0.291364 0.145683 10.197752 31.613031-27.388248-13.548442-19.375729-7.284109-39.479869-11.217527-13.257078-3.35069-4.516148-0.582729-2.185232-0.145682-39.188505 0.582729-15.005264 0.874093-30.15621 5.244558-18.938683 5.098876-18.647318 6.70138L279.709774 710.929008l-16.75345 9.906388-3.059326 2.039551-1.748186 1.311139-0.874093 0.728411-0.437047 0.437047v0.291364h-0.145682V726.079954l0.145682 0.145683 0.291365 0.582728 0.874093 1.31114 2.622279 3.205008 13.694124 15.005264 5.681605 5.39024 1.31114 1.165457 0.582728 0.291365 0.291365 0.145682h0.291364l19.230047-10.489117 19.812776-8.158201 20.686868-6.264334 28.11666-5.681605 27.970977-2.330914 36.711908 1.893868 36.420544 7.138426 36.129179 12.237303 19.521411 8.886613 5.535923 3.059325 1.019775 0.728411 0.291364 0.291365 0.145682 0.145682 0.437047 1.019775 1.893868 6.410016 4.807512 17.336178 1.019775 3.642055 0.145682 1.019775-63.517428-27.096884-33.652582-8.886613-17.336178-2.767961-8.740931-0.437047-24.765969 0.437047-10.634799 0.874093-21.560962 3.787736-31.758714 7.284109-15.150946 5.39024-6.70138 3.059326-3.933418 2.330915-1.31114 0.874093-0.582729 0.582728-0.437046 0.437047-0.145682 0.145682v0.145682l-0.145683 0.145682v0.582729h0.145683v0.145682l0.145682 0.145683 0.437046 0.437046 1.019775 1.019775 5.390241 4.079101 21.269597 15.150946 45.744203 24.76597 30.010528 11.945938 31.321667 8.886613 32.19576 5.681604 32.77849 2.476597 32.778489-0.582728 32.487124-3.642055 31.758714-6.847062 30.738939-10.05207 26.659838-11.071845 7.575473-3.933419 1.456822-0.874093 0.437046-0.291364-9.323659-0.437047-18.501636-2.185232-41.373737-6.264334-14.859582-2.622279-9.032295-1.602504-1.893868-6.992744-3.933419-14.7139-1.602504-6.118651 3.933419 0.874093 7.866837 2.622279 30.447575 6.410016 32.050078 3.787736 64.537203 2.476597 0.291364-0.145682h0.291365l0.582728-0.145682 1.165458-0.437047 2.03955-0.874093 4.516148-2.767961 19.375729-16.025039 13.257077-12.09162 2.476597-2.767962 1.019776-1.165457 0.437046-0.437047 0.145682-0.291364v-0.291364l-10.926163 2.476597-22.435054 2.767961-14.422536 1.311139h-37.877365l-8.303884-0.582728-6.118651-0.291365-12.091621-1.311139-30.301892-4.516148-29.719163-7.138426-16.75345-4.953194-4.66183-1.748186-0.874093-0.437047-0.145682-0.145682h-0.145682v-0.145682l-0.145682-0.145682-0.145682-0.291364-0.145683-0.728411-2.03955-6.555698-4.807512-18.06459-0.874093-3.787736-0.291364-1.019775 22.872101 9.760705 23.309148 7.575473 32.050078 6.992745 32.487125 3.642054 32.924171 0.728411 32.632807-2.185233 1.893868-0.145682 6.847063-1.019775 30.447574-6.118651 11.654574-2.913644 2.03955-0.728411 0.437047-0.291364h0.145682l0.291364-0.291365 0.874093-0.874093 3.933419-4.953193 12.09162-17.918908zM819.170864 789.743064l-1.893869-1.456821-0.582728-0.582729-0.437047-0.145682h-0.145682v-0.145682h-0.291364l-0.145683 0.145682h-0.145682l-0.437046 0.291364-0.291365 0.145682-0.582728 0.582729-0.728411 0.728411-1.31114 1.602504-1.311139 1.893868 4.079101 3.35069 7.575473 7.575473 26.951202 24.76597 0.728411-0.437047 1.165457-1.165457 2.476597-2.767962 0.874093-1.311139-27.388249-25.203016zM197.982074 780.273723l1.456822 1.748186 6.410016 7.866838 2.476597 2.622279 0.437046 0.291364 0.145682 0.145682h0.582729l0.291364-0.145682 0.728411-0.437046 1.31114-0.874093 1.893868-1.748187-0.145682-0.291364-0.728411-1.165457-4.224783-5.535923-15.587993-18.647318-2.913643-3.642054-1.893868-2.185233-0.728411-0.582729-0.437047-0.291364-0.291364-0.145682-0.145682-0.145682h-0.582729l-1.31114 0.437046-0.582728 0.291364-0.291365 0.145683-0.291364 0.291364-0.291364 0.145682-0.145682 0.145682-0.291365 0.291365-0.145682 0.291364v0.291364l-0.145682 0.437047v0.582729l0.145682 0.291364 0.145682 0.582729 0.145682 0.437046 0.145683 0.582729 0.72841 1.019775 1.602504 2.03955 5.535923 6.264334 0.728411 1.165457 0.291364 0.437047v0.291364l0.145682 0.145682v0.728411l-0.145682 0.145682v0.145683l-0.145682 0.145682-0.291364 0.437046-0.874093 0.874093-4.516148 4.079101-20.541186 16.170721-5.390241 4.516148-1.602504 1.748186-0.728411 0.728411-0.291364 0.437046h-0.145682V804.311282l0.145682 0.145682v0.145682l0.291364 0.582729 0.582729 0.728411 1.019775 1.311139 0.582729 0.582729 0.291364 0.291364 0.437047 0.291365 0.291364 0.145682 0.291365 0.145682H161.852895l0.291364 0.145682 0.145683-0.145682h0.291364l0.291364-0.145682 0.437047-0.145682 0.437046-0.145682 0.291365-0.291365 1.165457-1.019775 2.476597-2.330915 30.010528-24.911652zM893.177408 771.824157l-6.847062-10.489116-19.084365-27.679613-3.787737-5.244559-0.72841-0.728411-0.145683-0.145682-2.185232 2.767962-1.165458 1.748186-0.582728 1.019775-0.145682 0.437046-0.145683 0.291365V734.238156l0.145683 0.145682 0.72841 1.31114 5.535923 8.01252 20.395504 28.699388-44.724427-13.985489-4.807512 6.555698 0.145682 0.145682h0.145683l1.311139 0.582729 8.886613 2.767961 31.758714 8.595248 9.323659 2.622279 1.893868 0.145683H890.263764l0.145683-0.145683h0.145682v-0.145682l0.291364-0.145682 0.582729-0.728411 1.019775-1.456822 1.019775-1.602503 0.437047-1.019776 0.145682-0.437046 0.145682-0.291365v-0.291364l-0.145682-0.291364zM149.761275 733.364063l0.145682-0.291364 0.145682-0.291365 0.145682-0.437046 0.291365-0.437047 0.291364-0.437046 0.291364-0.291364 0.437047-0.437047 0.437046-0.291364 0.728411-0.437047 1.456822-0.874093 0.728411-0.291364 0.582728-0.145682 0.728411-0.145683 0.582729-0.145682h0.874093l0.874093 0.145682 1.019775 0.291365 1.019776 0.437046 1.019775 0.582729 1.165457 0.728411 1.019775 1.019775 1.165458 1.456822 1.019775 1.602504 1.019775 1.748186 1.165458 2.622279 0.582728 2.622279 0.145682 1.165457 0.145683 1.31114-0.145683 0.728411v0.728411l-0.145682 0.582728-0.291364 0.728411-0.437047 0.728411-0.437046 0.582729-0.582729 0.874093-1.165457 1.456822-0.437047 0.582728-0.145682 0.291365-0.145682 0.291364h-0.145682v0.582729l2.767961 5.244558 0.582729-0.145682 0.582728-0.291364 0.582729-0.291365 1.019775-0.874093 1.893869-1.893868 0.728411-0.874093 0.72841-0.874093 0.582729-1.019775 0.291364-1.019776 0.582729-1.456821 0.291364-1.456822 0.291365-2.039551-0.145682-2.03955-0.145683-2.185233-0.72841-3.205007-1.165458-3.059326-1.602504-3.059326-1.748186-2.767961-2.185232-2.476597-2.330915-2.03955-1.748186-1.165458-1.748186-0.874093-1.893869-0.582729-1.311139-0.291364-1.456822-0.145682-2.767961 0.145682-2.767961 0.582729-2.62228 0.874093-1.893868 1.165457-1.748186 1.165458-1.31114 1.456821-0.582728 0.874093-0.582729 0.728411-0.437046 1.165458-0.291365 1.165457-0.437046 1.456822-0.145682 1.748186 0.145682 1.602504 0.291364 2.476597 1.456822 5.244558 3.787736 10.489117 0.728411 3.059325 0.291365 1.602504 0.145682 1.019775-0.291365 1.019776-0.145682 1.019775-0.437046 0.874093-0.582729 1.019775-0.728411 0.728411-0.874093 0.728411-0.874093 0.728411-0.874093 0.437046-0.728411 0.291364-0.582729 0.145683-1.019775 0.291364h-1.019775l-1.019775-0.145682-0.874093-0.291365-1.165458-0.291364-0.874093-0.582729-0.874093-0.582728-1.311139-1.019775-2.185233-2.185233-1.456822-2.039551-1.311139-2.185232-1.019775-2.185233-0.728411-2.330915-0.437047-1.311139-0.145682-1.456822-0.145682-1.311139v-0.874093l0.145682-0.874093 0.145682-0.874094 0.437047-1.165457 0.582728-1.019775 0.582729-0.874093 1.165457-1.019775 2.62228-2.330915-0.582729-1.165458-1.748186-3.205007-0.582729-0.874093-0.291364-0.291365-0.291365-0.145682-0.145682-0.145682H128.345995l-0.145682 0.145682-0.437047 0.145682-1.019775 0.728411-1.456821 1.31114-1.31114 1.311139-1.019775 1.456822-1.019775 1.602504-0.728411 1.748186-0.582729 1.748186-0.291364 1.893868-0.145683 1.893869 0.145683 2.330914 0.437046 2.476597 1.019775 3.059326 1.456822 3.205008 1.748186 3.059325 2.185233 2.767962 2.330915 2.622279 2.767961 2.185232 2.03955 1.31114 2.185233 1.019775 2.330915 0.728411 2.330914 0.437047h1.165458l1.165457-0.145683 1.31114-0.145682 1.165457-0.291364 1.165458-0.437047 1.165457-0.582728 2.330915-1.456822 1.311139-1.019775 1.165458-1.019775 1.019775-1.165458 0.582729-0.874093 0.437046-1.019775 0.437047-0.874093 0.291364-1.019775 0.291364-1.456822 0.145683-1.602504v-1.602504l-0.145683-1.602504-0.874093-3.787736-4.661829-12.965714-0.874093-3.787736-0.145682-1.602504 0.145682-1.019775zM940.815479 688.348271v-0.145682l-0.437047-0.291364-0.437046-0.291364-1.019776-0.728411-1.165457-0.437047-0.582729-0.145682-0.291364-0.145682h-0.728411l-0.291364 0.145682h-0.145682l-0.291365 0.145682v0.145682h-0.145682l-0.145682 0.145683-12.965714 27.388248-8.595248-4.079101-5.098876-2.622279-1.602504-0.582728-0.728411-0.145683 6.118652-12.674349 6.410015-13.548442-2.330914-1.31114-1.456822-0.582728-0.874093-0.437047h-1.019775l-0.145683 0.145682v0.145683l-0.145682 0.145682-0.582729 0.728411-1.165457 2.03955-7.138426 15.150946-2.185233 4.224783-0.728411 1.456822-0.437046 0.582729-0.291365 0.145682-0.145682 0.145682h-0.291364l-0.437047-0.145682-3.059325-1.165458-10.634799-5.098876 10.197752-20.686868 2.913643-6.118652 0.291365-1.165457 0.145682-0.291364-5.681605-2.62228-12.674349 26.07711-3.205008 7.284108-0.582728 1.456822V701.022621h0.145682l0.728411 0.145682 2.330914 1.019775 7.575473 3.933419 27.388249 13.257077 7.866838 3.642055 1.456821 0.437046 0.291365 0.145683 12.528667-26.07711 3.35069-7.284108 0.291364-0.874093 0.145682-0.291365V688.639636l-0.145682-0.145682zM145.099445 692.718737l1.165458-1.31114 0.145682-0.145682v-1.165457l-0.145682-0.291365-0.145683-0.582729-0.72841-1.456821-1.165458-2.185233-0.582729-0.728411-0.291364-0.291364-0.291364-0.291364-0.291365-0.145683-0.291364-0.145682-0.291364-0.145682-0.437047-0.145682h-1.311139l-1.602504 0.291364-3.205008 0.291365-48.803528 3.933418 0.145682 0.728411 0.582728 1.602504 2.330915 4.66183 11.800256-1.31114 2.476597-0.145682h1.893869l0.145682 0.145682 0.145682 0.145682 0.291364 0.291365 0.437047 0.582728 0.874093 1.602504 3.642054 8.01252 2.622279 5.535922 0.437047 1.165458 0.145682 0.437046v0.582729l-2.03955 2.622279-5.244559 4.370465-1.311139 1.165458-0.582729 0.582728-0.582729 0.728411-0.291364 0.437047-0.291364 0.582728-0.145683 0.437047-0.145682 0.582729v0.582728l0.145682 0.582729 0.145683 0.582729 0.437046 1.456822 0.437047 1.165457 1.311139 2.476597 0.582729-0.145682 0.874093-0.728411 4.807512-4.516148 23.746194-23.746194 8.449566-8.74093z m-11.945938 1.602504l-12.965714 12.674349-1.165457-0.728411-2.185233-4.807512-2.913643-6.118651-0.582729-1.456822-0.145682-0.728411-0.145682-1.019775 10.05207-0.874093 13.985489-1.31114-0.582729 1.165458-3.35069 3.205008zM84.204296 665.47617l-5.535922-17.481861-1.31114-4.079101-0.291364-1.311139h0.874093l2.185233-0.582729 8.74093-2.913643 3.205008-0.874093 0.291364-0.145683H92.799545l0.145682 0.145683h0.145682l0.145682 0.145682v0.145682l0.291365 0.145682 0.145682 0.291365 0.437046 0.582728 0.582729 1.748186 1.019775 3.059326 3.642055 11.800256 2.622279 8.74093 1.165457-0.145682 2.330915-0.437046 1.019775-0.291365 0.582729-0.291364 0.437046-0.145682 0.291365-0.145682 0.145682-0.145682 0.145682-0.145683v-1.165457l-0.437047-1.602504-2.185232-7.284109-3.496372-10.78048-2.185233-6.555698 11.217527-3.496372 3.205008-0.874094h0.728411l0.145682 0.145683h0.145683l0.145682 0.145682v0.145682l0.291364 0.291364 0.291364 0.874093 0.437047 1.456822 4.516147 14.422535 2.767962 7.721156 0.874093 3.933418 6.118651-1.748186-11.800256-37.003272-35.692133 11.36321-10.05207 2.913643-4.661829 1.893868 9.906388 31.321668 0.72841 2.767961 0.145683 0.728411 0.145682 0.437046 0.291364 0.437047 0.145682 0.145682 0.145682 0.145682 0.145683 0.291365 0.145682 0.145682 0.291364 0.145682H80.999289l0.437046 0.145682h0.291365l0.437046-0.145682h0.291364l0.728411-0.145682 2.767962-1.31114v-0.145682h0.145682V672.468914l-0.145682-0.72841z" fill="#005BAC" p-id="9977"></path><path d="M243.871959 634.154503l28.699388-11.654574 36.711908-12.091621 36.129179-7.42979 36.420544-2.62228 27.970977 1.456822 28.990753 4.224783 29.864845 6.264334 14.422535 4.370465 17.481861 7.575473 41.810784 19.084365 59.146963 19.958458 30.301892 6.118651 46.763978 3.35069 37.440318-3.933419 62.206289-10.780481 30.010528-9.615023 8.158201-3.205008 2.476597-1.019775 0.437047-0.291365 0.145682-0.145682v-0.145682l0.145682-0.291364 0.874093-1.456822 3.787737-9.177977 8.303884-24.620287 1.456821-5.390241 0.291365-1.019775v-0.291364l-38.751459 15.296628-48.803528 11.945938-33.215535 4.66183L646.828852 636.6311l-12.965714-1.019775-24.911651-4.953194-63.226064-18.647319-57.835823-25.785744-31.904396-10.05207-32.924171-6.70138-15.587993-2.039551-7.866837-0.437046-12.674349-0.874093h-22.143691l-15.296628 0.874093-11.654574 1.311139-13.257078 1.893868-25.931427 6.118652-46.181249 16.316403-21.706644 11.071845-19.958457 13.40276-7.866838 6.847063-2.622279 1.893868-1.31114 0.728411 8.303884 20.832551 2.039551 4.224783 0.874093 1.602504 0.437046 0.72841 0.145683 0.145683 0.291364 0.291364h0.145682l9.323659-6.992744 9.760706-6.118652zM966.309859 606.47489l-1.165457 0.582728-0.582729 0.291365-0.291364 0.145682-2.185233-0.145682-7.866837-1.893868-4.516148-0.728411-2.622279-0.145683-1.165457 0.145683-1.019775 0.291364-0.437047 0.145682-0.728411 0.437047-0.728411 0.437046-0.874093 0.728411-1.602504 1.602504v-0.728411l-0.291364-0.874093-0.291364-0.874093-0.437047-0.874093-0.728411-1.019775-0.728411-1.019775-0.874093-0.874093-1.019775-0.874094-1.019775-0.72841-1.165457-0.582729-3.35069-1.456822-1.602504-0.437046-2.185233-0.437047h-1.456822l-1.456821 0.145682-1.019776 0.145682-1.019775 0.291365-0.874093 0.437046-0.874093 0.437047-1.165457 0.728411-1.019776 0.874093-1.311139 1.456822-1.165458 1.602503-1.019775 1.748187-0.874093 1.893868-1.602504 3.933418-3.35069 12.237303-2.476597 8.595248-0.437046 1.893869-0.145682 0.72841v0.582729l0.145682 0.145682h0.145682l0.291364 0.145683 0.728411 0.291364 2.039551 0.728411 10.489116 2.913643 26.077109 7.138427 9.615024 2.622279 1.165457-0.145682 0.145682-0.145682 0.145683-0.145683 0.145682-0.437046 0.437046-1.019775 0.874093-3.933419 0.145682-1.019775v-0.291365l-7.866837-2.03955-7.866837-2.039551-6.118652-1.602503 2.913644-10.05207 1.602504-5.681605 1.019775-2.913644 0.874093-1.748186 0.582729-0.874093 0.874093-1.019775 0.728411-0.728411 0.874093-0.582729 0.582728-0.291364 0.728411-0.145682 1.019775-0.145682h1.456822l0.728411 0.145682 10.343434 2.330915 3.496373 0.437046h1.748186l0.145682-0.437046 0.291364-1.31114 1.31114-4.807512 0.291364-1.311139v-1.019775h-1.165457l-0.437047 0.145682z m-31.030303 7.429791l-0.145682 2.330914-0.437047 2.330915-1.311139 4.66183-2.185233 8.303884-0.582728 1.602504-0.291365 0.582728-0.145682 0.291365v0.145682h-0.145682l-0.437047-0.145682-3.642054-0.874093-12.820031-3.496373 3.059325-13.257077 1.748186-4.516148 1.019776-2.03955 1.165457-1.602504 0.582729-0.728411 1.019775-0.874093 0.874093-0.582729 0.874093-0.437046 0.728411-0.145682 0.728411-0.145683h1.456822l2.185232 0.145683 0.874093 0.291364 1.31114 0.437046 0.874093 0.291365 0.728411 0.437046 0.437046 0.291365 0.437047 0.437046 0.437046 0.437047 0.291365 0.437046 0.437046 0.582729 0.291364 0.582729 0.291365 1.019775 0.145682 1.019775 0.145682 1.019775v1.165458zM113.195049 607.931711v-1.311139l-0.728411-4.079101-0.291364-1.019775-0.145682-0.437047v-0.145682h-0.145682v-0.145682H111.009816l-4.516147 0.582729-15.879357 2.622279v-1.165458l-0.582729-3.642054-2.622279-15.296628-0.582728-4.224783v-2.476597h0.145682v-0.145682h0.145682l0.145682-0.145683 0.437047-0.145682 4.370465-0.874093 15.587992-2.330915-0.874093-7.42979-3.787736 0.291364-7.575473 1.456822-27.388249 4.370465-9.323659 1.748186-4.66183 0.437046 1.31114 7.284109 3.496372-0.291364 6.992745-1.31114 8.74093-1.311139 5.244558-0.874093 0.728411 6.410015 1.893868 12.237303 1.165458 8.74093-23.017784 3.642055-0.145682 0.145682h-0.145682v0.291364l-0.145682 0.291365-0.145682 0.437046v0.874093l0.145682 1.31114 0.145682 1.456821 0.582729 1.31114 0.145682 0.437047v0.145682l0.145682 0.145682h0.145682v0.145682h0.145682v0.145682h0.291365l1.602504-0.145682 10.926163-1.748186z" fill="#005BAC" p-id="9978"></path><path d="M329.970124 374.694551l46.326931-65.70266 1.165457-1.748186 0.728411-1.019776 0.437047-0.437046 0.291364-0.145682 0.145682-0.145682h0.728411l0.145682 0.145682h0.145683l0.582728 0.291364 1.019775 0.874093 1.748187 1.602504 51.571489 49.823304 13.839807 13.402759 2.185232 1.893869 0.291365 0.145682v0.145682h0.145682l3.205008-6.70138 7.866837-12.965713 43.121923-74.297909 11.800257-20.832551 1.456821-3.059326 0.291365-0.437046v-0.145682h0.874093v0.145682l0.145682 0.145682 0.437046 1.019775 2.476597 4.807512 9.906388 16.607768 41.228055 70.36449 8.740931 14.859582 4.079101 6.847062 1.748186 3.642054v-0.145682h0.291364l0.291364-0.291364 2.185233-1.748187 13.548442-12.965713 48.512164-48.075117 5.098876-5.098876 1.748186-1.602504 1.019775-0.582729 0.145683 0.145682 0.437046 0.874093 3.787737 6.118651 28.408024 43.121924 103.580025 155.588562 29.136435 43.850334 8.74093 13.111396 3.933419 5.972969 1.602504 1.019775v-1.602504l0.437047-3.059326 1.602503-9.323659 2.62228-22.580737 0.582728-11.363209v-26.077109l-0.582728-10.926163-2.476597-21.706644-5.535923-30.010528-11.071845-38.023048-15.879357-36.420543-19.812776-34.380993-22.14369-29.864846-25.640063-27.096884-41.228055-33.361218-45.307156-26.222791-48.2208-18.647318-50.26035-11.071846-51.280125-3.205007-51.425807 4.661829-50.551715 12.965714-48.657846 21.123915-26.80552 16.025039-25.203016 18.06459-23.45483 20.541186-21.415279 22.580737-27.825295 37.440319-22.289373 40.499644-16.462086 43.267606-10.197752 45.452838-3.205008 25.640062-0.582728 12.67435 0.437046 30.88462 0.291365 9.177977 0.72841 9.615024 3.059326 19.521411 1.893868 10.926163 0.145682-0.145682 0.145683-0.145682 0.728411-0.874093 4.0791-5.535923 13.839807-19.958458zM975.924883 535.527671l-0.582729-1.311139-0.582729-1.165458-0.728411-1.165457-0.728411-1.165458-0.72841-0.728411-0.728411-0.582728-1.456822-0.874093-1.456822-0.728411-2.476597-0.728411-1.748186-0.291364-4.224783-0.291365-0.874093 0.145682-1.019775 0.145683-1.748186 0.437046-1.019775 0.582729-1.165458 0.582729-1.019775 0.72841-0.874093 0.728411-1.748186 1.893869-0.728411 1.165457-1.602504 3.205008-4.370465 11.654574-1.31114 3.35069-0.728411 1.311139-0.582728 1.165458-0.437047 0.291364-0.291364 0.437047-0.582729 0.437046-0.582728 0.291364-0.437047 0.291365-0.582729 0.291364-0.437046 0.145682-0.582729 0.145682-0.582729 0.145683h-1.602504l-0.72841-0.145683-0.728411-0.145682-0.728411-0.291364-0.728411-0.437047-0.728411-0.291364-0.582729-0.437046-0.582728-0.582729-0.582729-0.582729-0.437046-0.728411-0.437047-0.728411-0.437047-1.165457-0.437046-1.165457-0.145682-1.602504v-3.496372l0.145682-1.748187 0.291364-1.602503 0.291365-1.31114 0.437046-1.019775 0.437047-0.874093 0.728411-1.165458 0.72841-1.019775 1.31114-1.165457 1.31114-0.728411 1.748186-0.874093 3.059325-0.874093 1.019776-0.291365 0.437046-0.145682 0.291364-0.145682v-0.145682l0.145683-0.145682 0.145682-0.291365 0.145682-0.291364 0.145682-1.019775 0.291364-4.66183-4.807511 0.145682-2.330915 0.291365-1.748186 0.582728-1.602504 0.728411-1.31114 0.874093-1.019775 0.874093-1.456822 1.456822-1.311139 1.602504-1.019775 1.748186-1.019776 2.185233-0.874093 2.330915-0.582728 2.330914-0.437047 2.476597-0.145682 3.35069 0.145682 3.35069 0.728411 3.059326 0.728411 2.03955 0.874093 1.893869 1.019775 1.748186 1.019775 1.019775 1.165458 1.165457 1.748186 1.31114 1.165457 0.582729 1.019775 0.582728 2.913644 1.019775 1.456822 0.291365 1.893868 0.145682h1.311139l1.165458-0.145682 0.874093-0.291365 0.874093-0.291364 0.728411-0.291364 0.728411-0.437047 1.311139-0.874093 0.874093-0.874093 1.456822-1.748186 1.31114-2.03955 2.185232-4.807512 3.787737-9.906388 1.311139-3.059326 0.728411-1.165457 1.165458-1.602504 0.582728-0.728411 1.019775-0.874093 0.728411-0.437046 0.874093-0.437047 0.874093-0.291364 1.019776-0.145682h1.019775l1.311139 0.145682 1.165458 0.291364 1.019775 0.437047 0.874093 0.728411 0.874093 0.72841 0.437047 0.437047 0.437046 0.728411 0.582729 0.874093 0.437046 0.874093 0.291365 1.019775 0.437046 1.602504 0.145682 1.748186v1.748186l-0.145682 2.767962-0.582728 2.622279-0.874093 2.622279-1.165458 2.476597-0.874093 1.311139-1.019775 1.31114-1.019775 1.165457-0.874093 0.728411-1.019776 0.437047-1.165457 0.437046-1.165457 0.291365-1.456822 0.291364h-3.205008l-0.874093 6.992744 4.370465 0.437047 2.476597-0.291365 2.330915-0.728411 2.185233-1.019775 1.893868-1.311139 1.165457-0.874093 1.019775-1.165458 1.893869-2.476597 1.602504-2.767961 1.019775-3.059326 0.728411-3.205007 0.145682-3.205008v-6.992745l-0.437047-3.205007zM91.925452 538.295632l6.992744-0.437046v3.933419l0.437047 3.35069v3.205007l0.437046 2.039551v5.244558h4.370465l2.185233-0.437046-0.874093-13.839807-0.874093-11.800256-0.874093-16.899132-2.913644-0.145682-1.748186 0.145682-0.582728 0.145682H98.044103l-0.145682 0.145682h-0.145682l-0.145683 0.145682-0.145682 0.145682v3.205008l0.582729 9.615024 0.437047 4.807512-46.618296 2.622279-0.145682 3.642054 0.145682 1.31114 0.145682 0.72841 0.145682 0.437047v0.291364l0.145682 0.291365 0.145683 0.145682 0.145682 0.145682 0.145682 0.145682 0.145682 0.145682h0.291364l3.933419-0.291364zM52.445583 504.206004l0.72841-0.437047 0.728411-0.437046 0.437047-0.291365 0.874093-0.291364 0.728411-0.145682h1.602504l7.575473 0.145682 4.079101-0.291364 2.476597-0.437047 1.019775-0.291364 0.874093-0.437047 0.437046-0.291364 0.728411-0.582729 0.728411-0.582729 0.728411-0.874093 1.311139-2.03955 0.291365 0.728411 0.291364 0.728411 0.728411 1.311139 0.437047 0.582729 0.72841 0.728411 1.019776 0.874093 1.165457 0.728411 1.31114 0.582728 1.456821 0.582729 1.602504 0.437047 1.602504 0.291364 1.602504 0.145682 2.185233-0.145682 2.185232-0.437046 2.039551-0.582729 1.311139-0.582729 1.165458-0.728411 1.019775-0.874093 0.728411-0.728411 0.728411-0.728411 0.437046-0.72841 0.874093-1.893869 0.728411-2.330914 1.165457-5.535923 1.019776-9.760706 0.437046-16.316403-45.307156-2.185233-4.807512-0.437046h-0.874093l-0.437046 0.145682h-0.291365l-0.291364 0.145682-0.145682 0.145682-0.145682 0.145682-0.145682 0.145683-0.145683 0.145682-0.145682 0.291364-0.145682 0.291364-0.145682 0.437047v4.516147l0.145682 0.291365 0.145682 0.291364v-0.291364l0.145682 0.145682 0.145683 0.145682 0.145682 0.145682 0.145682 0.145682H55.359226l19.958458 0.874093-0.874093 16.607768v1.456822l-0.145682 1.31114-0.291365 1.165457-0.291364 0.728411-0.291364 0.728411-0.728411 1.019775-0.728411 0.874093-0.874093 0.728411-0.874093 0.582729-1.019775 0.437046-1.456822 0.437047-1.019775 0.145682-2.039551 0.145682-9.177977-0.291364-1.602504 0.145682-0.728411 0.145682-0.582728 0.145682-0.437047 0.145682-0.291364 0.145682-0.145682 0.145683-0.145682 0.145682-0.145683 0.145682-0.145682 0.145682-0.291364 2.476597v2.185233l-0.437047 3.787736h0.582729l0.437047-0.145682 0.437046-0.145682 0.437047-0.145682z m28.990752-34.672358h5.681605l4.807512 0.437047h5.244558l2.622279 0.437046-0.582729 1.31114-0.291364 3.35069v11.071845l-0.291364 3.496372-0.437047 1.602504-0.437046 1.165458-0.437047 1.019775-0.437046 0.582729-0.437047 0.582728-0.582729 0.437047-0.582728 0.437046-0.874093 0.582729-0.874093 0.437046-1.019776 0.291365-1.019775 0.145682-1.019775 0.145682h-1.31114l-1.019775-0.145682-1.019775-0.145682-1.019775-0.291365-1.019775-0.437046-0.874094-0.437047-0.874093-0.582728-0.72841-0.728411-0.582729-0.728411-0.437047-0.874093-0.291364-0.582729-0.291364-1.165457-0.145683-1.456822-0.145682-3.496372 0.728411-16.462086zM50.551714 504.788732v-0.145682zM976.944658 479.877081l-0.145682-0.145683-0.145683-0.291364-0.291364-0.145682-0.145682-0.145682-0.291364-0.145682-0.437047-0.145683h-0.291364l-0.582729-0.145682-1.456822-0.145682-41.810784 2.185233-3.059325-0.145682h-1.456822l-0.437046 0.145682h-0.728411l-0.291365 0.145682-0.291364 0.291364h-0.145682l-0.145682 0.145682-0.145683 0.145683-0.145682 0.145682-0.145682 0.291364-0.145682 0.291364-0.145682 0.437047v0.437046l-0.145682 0.728411v2.622279l0.145682 0.728411v0.582729l0.145682 0.145682v0.145682l0.145682 0.145683 0.145682 0.145682h0.145682l0.145683 0.145682h0.145682l17.773225-0.728411 4.66183-0.437046h4.370465l5.244558-0.437047 9.177977-0.437047 10.780481-0.437046 0.291364-3.496372v-1.893868l-0.145682-0.291365zM923.042254 427.722862l-0.437047-2.913643-2.03955-9.906388-0.874093-3.642054-0.145683-0.437047-0.145682-0.145682v-0.145682H918.963153l-0.291365-0.145682H917.797695l-4.224783 0.874093 8.158202 41.519419v0.145683h0.291364v0.145682h0.291365l0.437046 0.145682h0.437047l0.728411-0.145682h0.874093l0.72841-0.291365 0.728411-0.291364 0.437047-0.145682 0.291364-0.145682 0.291365-0.145683 0.145682-0.291364h0.145682v-0.145682l0.145682-0.145682v-0.291365l-3.35069-16.462085 45.161474-9.032295 0.145682-0.145682v-0.145682l0.145682-0.145683V424.809219l0.145683-0.145682v-0.728411l-0.145683-1.893868-0.437046-1.748186-0.291365-0.582729v-0.291364l-0.145682-0.145683v-0.145682h-0.145682v-0.145682H967.766681l-1.748186 0.145682-8.158202 1.602504-23.45483 4.66183zM59.292645 427.57718l0.874093 2.476597 1.602504 3.205008 2.03955 2.913644 1.748186 1.748186 2.039551 1.748186 2.913643 2.185232 3.496372 1.893869 3.933419 1.602503 6.992744 1.31114h4.807512l2.330915-0.145682 2.185232-0.291364 2.185233-0.582729 2.039551-0.728411 2.913643-1.456822 2.622279-1.602504 1.748186-1.456821 1.602504-1.602504 1.456822-1.748186 1.311139-1.893869 2.039551-4.079101 1.311139-4.370465 0.582729-4.516147-0.145682-4.516148-0.582729-3.059325-0.874093-2.913644-1.311139-2.913643-1.748186-2.767961-1.31114-1.602504-1.602504-1.602504-1.748186-1.456822-1.893868-1.456822-2.767962-1.602504-3.205007-1.311139-4.807512-1.456822-5.535923-0.874093-6.118651-0.145682-1.748186 0.145682-1.748186 0.291364-1.748186 0.437047-1.602504 0.582729-2.039551 1.019775-2.03955 1.311139-1.893868 1.602504-1.748186 1.748186-1.602504 1.893869-1.456822 2.03955-1.748186 3.35069-1.31114 3.496372-0.874093 3.642055-0.437046 3.787736v2.622279l0.291364 2.476597 0.582729 2.622279z m5.39024-8.886612l0.437047-2.767962 0.728411-2.767961 1.165457-2.622279 1.019775-1.602504 1.165458-1.456822 1.311139-1.311139 1.456822-1.165458 1.602504-1.019775 1.602504-0.874093 1.311139-0.437046 1.31114-0.437047 1.456822-0.145682 1.456821-0.145682 4.516148 0.145682 4.079101 0.582729 3.642054 1.019775 2.476597 1.019775 2.330915 1.165457 2.913643 2.039551 2.330915 2.476597 1.456822 1.893868 1.165457 2.03955 0.874093 2.039551 0.582729 2.185232 0.291364 1.602504 0.145682 1.602504v1.602504l-0.145682 1.602504-0.291364 1.602504-0.437047 1.602504-0.582728 1.456822-0.728411 1.456821-0.874093 1.31114-1.019776 1.31114-1.165457 1.165457-1.31114 1.019775-2.03955 1.31114-2.330915 1.019775-3.35069 0.874093-2.476597 0.291364-2.622279 0.145683-2.767961-0.145683-3.787737-0.728411-3.35069-1.165457-2.913643-1.456822-2.039551-1.165457-1.893868-1.31114-2.185232-2.185232-1.748187-2.330915-1.019775-1.748186-0.728411-1.893868-0.72841-1.893869-0.291365-1.893868v-2.913643zM72.258358 373.237729h0.145682l0.145683 0.145683 0.291364 0.145682 3.496372 1.456821 12.091621 3.933419 24.911651 8.449566 7.284109 2.185233 1.31114 0.291364h0.437046l0.145682-0.291364 0.291365-0.874093 0.874093-3.35069 0.145682-0.728411 0.145682-0.291364v-0.582729H123.829848v-0.291364h-0.145682v-0.145683h-0.145683l-0.291364-0.145682-0.874093-0.437046-8.158202-2.913644-22.872101-7.429791-5.244558-1.893868-1.602504-0.582729 47.783753-11.654573h0.145682v-0.145683l0.291364-0.291364 0.291365-0.437047 0.582728-1.311139 1.456822-4.66183 0.437047-1.602504-37.586001-12.528667-10.489117-3.35069-1.602504-0.437046H85.369754v0.145682h-0.145682v0.145682l-0.145682 0.145682-0.145683 0.145683-0.145682 0.291364-0.291364 0.582729-0.728411 1.893868-1.019775 3.059326 3.35069 1.311139 7.138426 2.330915 19.958458 6.555698 6.847062 2.185232 2.185233 1.019776 1.019775 0.437046-1.456822 0.145682-3.205007 0.582729-9.615024 2.622279-24.911652 5.972969-9.906388 2.476597-0.145682 0.437047-0.291364 1.019775-1.31114 4.079101-0.291364 1.165457v0.874093h0.145682zM893.031726 350.219946l21.560961 4.079101 6.118652 1.602504 1.165457 0.291364 0.291364 0.145682-0.145682 0.145682-0.437046 0.437047-2.330915 2.476597-10.780481 12.965713-3.787736 5.098876-0.582729 0.874093v1.31114l0.291364 1.31114 1.165458 3.059325 1.019775 2.330915 0.291364-0.145682 0.728411-0.874093 3.933419-4.66183 12.965713-16.899132 5.098876-6.410016 0.291365-0.145682 0.728411-0.437046 4.224783-1.602504 14.859581-5.390241-1.165457-3.35069-0.582729-1.311139-0.291364-0.582729-0.437047-0.728411-0.145682-0.291364-0.291364-0.145682-0.145682-0.145682h-0.145682v-0.145683H946.060037l-15.587993 5.535923-3.933418 1.165457h-0.874093l-1.602504-0.291364-5.390241-1.165457-17.773225-3.933419-6.992744-1.602504-2.330915-0.291364h-1.165457l1.456821 4.224783zM823.832693 158.356523l0.145682 0.728411 0.145682 0.582729 0.291365 0.582728 0.145682 0.291365 0.145682 0.145682h0.145682l0.291365 0.291364 0.291364 0.145682h0.145682l0.291365 0.145682 0.437046 0.145683h4.516147v-0.874093l-0.145682-0.437047-0.145682-0.437046-0.291364-0.437047-0.291365-0.437047-0.437046-0.437046-1.31114-1.165457-1.456821-1.019776-0.582729-0.291364-0.437047-0.145682-0.291364-0.145682h-0.874093l-0.145682 0.145682-0.145682 0.145682-0.145683 0.145682-0.145682 0.145682v0.145683l-0.145682 0.291364v0.291364l-0.145682 0.437047 0.145682 0.582728zM750.55456 214.589842l0.145682 1.019775 0.145682 3.35069 0.291364 1.165458 0.145683 0.437046 0.291364 0.728411 0.291364 0.582729 0.437047 0.437046 0.291364 0.291365 0.291364 0.145682 0.437047 0.291364 0.582729 0.291365 0.728411 0.145682 0.582728 0.145682h1.019775l0.728411-0.145682 0.728411-0.145682 0.582729-0.145683 1.311139-0.728411 1.31114-0.874093 2.622279-2.330914 11.36321-12.528667 1.456821-1.31114 0.728411-0.437046 0.437047-0.291365 0.582729-0.291364 0.582728-0.145682 0.437047-0.145682h0.874093l0.437046 0.145682 0.582729 0.145682 1.019775 0.437046 1.893868 0.874093 1.893869 0.874094 1.019775 0.437046 0.437046 0.291364 0.437047 0.291365 0.291364 0.437046 0.291365 0.437047 0.291364 0.291364 0.291364 0.728411 0.582729 1.31114 1.893868 7.138426 0.582729 1.31114 0.291364 0.582728 0.291365 0.437047 0.291364 0.291364 0.291364 0.291365 0.437047 0.291364 0.291364 0.145682 0.728411 0.291364 0.437047 0.145683H795.424669l0.437047-0.145683H796.298762l0.291365-0.145682 0.145682-0.145682 0.145682-0.145682 0.145682-0.291364 0.145682-0.145683 0.145682-0.291364 0.145683-0.291364 0.145682-0.291365 0.145682-0.582728v-3.35069l-0.437047-2.913644-0.72841-2.476597-0.437047-1.165457-0.145682-0.437047-0.437047-1.019775-0.72841-0.874093-0.874094-1.019775-1.019775-0.874093-1.019775-0.728411-2.476597-1.31114-4.807512-2.03955-1.311139-0.582729-1.019775-0.728411-1.165458-0.874093 2.767961-1.602504 1.31114-1.165457 0.582729-0.437047 0.582728-0.582728 0.437047-0.728411 0.145682-0.437047 0.145682-0.437046 0.145682-0.582729v-1.311139l-0.291364-0.582729-1.893868-3.496372 0.582729 0.145682 1.165457 0.291364 2.330915 0.728411 1.019775 0.291364 0.437046 0.145683h0.874094l0.291364-0.145683 0.437046-0.145682 0.291365-0.145682 0.437046-0.291364 0.291365-0.291365 0.145682-0.291364 0.145682-0.291364 0.145682-0.291365 0.145682-0.291364v-1.602504l-0.291364-0.582729-0.145682-0.437046-0.291365-0.582729-0.72841-1.019775-0.728411-0.728411-0.437047-0.437046-0.437046-0.291365-0.728411-0.437046-1.456822-0.728411-5.098876-1.602504-1.602504-0.728411-0.728411-0.291364-0.582729-0.437047-0.582728-0.437046-2.185233-1.893869-1.165457-0.874093-0.582729-0.291364-0.728411-0.145682-0.437046-0.145682h-1.165458l-0.291364 0.145682h-0.145682l-0.291365 0.145682-0.145682 0.145682-0.145682 0.145682-0.291364 0.291365-0.291365 0.437046-0.145682 0.291365-0.145682 0.291364v0.291364l-0.145682 0.291365v1.019775l0.145682 0.291364 0.291364 0.874093 0.145683 0.437047 0.582728 1.165457 2.039551 2.913644 0.437046 0.874093 0.291365 0.291364-2.185233 1.019775-1.31114 0.728411-0.874093 0.437047-0.291364 0.291364-0.145682 0.145682-0.145682 0.145682v0.582729h0.145682v0.145682h0.145682l0.145682 0.145682 0.145682 0.145683 0.437047 0.145682 0.582729 0.145682 1.165457 0.291364 3.787736 0.437047 0.728411 0.145682h0.145683l1.311139 1.165457v0.145683l0.145682 0.145682-0.145682 0.291364v0.291364l-0.145682 0.291365-0.145682 0.291364-0.437047 0.728411-2.330915 3.933419-0.437046 0.728411-0.145682 0.437046-0.145682 0.582729-12.67435-3.642055-0.437046-0.145682-0.874093-0.582728-2.767961-1.893869-0.582729-0.291364-0.291364-0.145682-0.437047-0.145682H756.236164l-0.291364 0.145682h-0.145682l-0.145682 0.145682-0.145682 0.145682v0.145682h-0.145683l-0.145682 0.145682v1.456822l0.291365 0.874093 0.291364 0.582729 0.728411 1.311139 1.311139 1.748187 1.165458 1.602503 0.728411 0.582729 0.145682 0.145682 0.437046 0.291365 0.582729 0.291364 0.437047 0.145682 0.437046 0.291365 1.019775 0.145682h0.582729l1.31114 0.145682 3.496372-0.437047h1.019775l0.437046 0.145683 0.291365 0.145682h0.291364l0.291364 0.145682 0.145683 0.145682 0.145682 0.145682 0.145682 0.145682v0.145683h0.145682V202.498222l-0.145682 0.145682-0.145682 0.291364-0.291365 0.728411-0.437046 0.728411-1.456822 1.602504-4.079101 3.933419-4.224783 3.35069-1.456821 1.019775-0.437047 0.291364-0.437046 0.145682-0.145683 0.145682h-1.019775l-0.291364-0.145682-0.291365-0.145682-0.437046-0.291364-0.728411-0.582729-1.165457-1.019775-2.185233-2.330915-0.582729-0.728411-0.437046-0.145682-0.291364-0.291364h-0.145683l-0.145682-0.145683h-0.874093v0.145683h-0.145682v0.145682h-0.145682v0.145682l-0.145682 0.145682v0.582729l1.602504 3.787736zM217.649168 127.908949l10.05207 13.985488 0.145682 0.437047 0.145682 0.437046v0.437047l-0.291364 1.019775-0.291365 0.728411-0.72841 1.456822-1.019776 1.602504-2.330914 3.059325-3.35069 4.224783-1.165458 1.748186-0.291364 0.728411-0.145682 0.291365-0.145683 0.291364v0.728411l0.145683 0.291364 0.145682 0.145682 0.145682 0.145683 0.145682 0.145682 0.145682 0.145682 0.145682 0.145682 0.145683 0.145682 0.291364 0.145682 0.437047 0.145683 0.72841 0.145682 1.602504 0.291364h0.582729l3.496372 1.893868h1.602504l0.437047-0.145682 0.437046-0.145682 0.291364-0.145682 0.291365-0.145682 0.291364-0.291365 0.582729-0.728411 0.437046-0.72841 0.728411-1.456822 1.602504-4.807512 0.582729-1.456822 0.291364-0.582728 0.291365-0.437047 0.145682-0.291364 3.933418 5.681605 0.728411 1.311139 0.291365 0.728411 0.291364 1.019775v0.437047l-0.145682 0.582728-0.582729 1.165458-1.748186 3.059325-4.516147 8.158202-1.893869 4.516148-0.874093 3.059325-0.291364 1.456822-0.145682 2.03955v0.437047l0.145682 0.437046 0.145682 0.437047 0.145682 0.291364 0.145683 0.291365 0.291364 0.291364 0.291364 0.291364 0.291365 0.145683 0.291364 0.145682 0.291364 0.145682 0.291365 0.145682h1.019775l0.582729-0.145682 0.582728-0.291364 0.582729-0.437047 0.582729-0.582729 0.437046-0.582728 0.437047-0.728411 0.437046-0.874093 0.291365-1.31114 0.145682-1.019775 0.145682-2.330915v-5.681605l0.145682-1.456821 0.145682-0.728411 0.437047-1.456822 0.728411-1.456822 1.019775-1.456821 3.35069-3.642055 2.913643 4.224783v0.582729l-0.145682 0.291364-0.582729 0.728411-2.767961 2.913644-1.311139 1.748186-0.437047 0.728411-0.145682 0.437046-0.291364 0.582729-0.145683 0.437046v1.019776l0.145683 0.291364 0.145682 0.291364 0.291364 0.582729 0.291364 0.291364 0.291365 0.291365 0.291364 0.145682 0.291364 0.145682 0.145683 0.145682h1.311139l0.582729-0.145682 0.582729-0.291364 1.311139-0.728411 3.642054-2.330915 0.582729-0.291364 0.291365-0.145683 0.145682 0.145683v2.622279l-0.582729 3.933418-2.622279 9.32366-1.456822 3.933418-1.019775 1.893869-0.437047 0.582728-0.145682 0.145682v0.291365l-0.145682 0.145682h-0.874093l-0.291364-0.145682-0.291365-0.145682-0.582728-0.437047-1.456822-1.311139-2.330915-2.330915-0.874093-0.728411-1.893868-1.165458-5.972969-3.35069-0.437047-0.291364-1.019775-0.874093-3.059326-2.913643-1.165457-0.874093-0.582729-0.437047-0.874093-0.437046-0.437046-0.145683-0.437047-0.145682h-1.456822l-0.291364 0.145682-0.437047 0.145683-0.437046 0.291364-0.582729 0.291364-0.291364 0.291365-0.291364 0.291364-0.291365 0.291364-0.291364 0.437047-0.291364 0.437046-0.145683 0.437047-0.145682 0.437046-0.145682 0.437047v1.019775l0.145682 0.145682 0.145682 0.145682 0.145683 0.145683 0.145682 0.145682 0.291364 0.291364 0.291364 0.145682 0.582729 0.291365 1.602504 0.437046 3.35069 0.728411 0.874093 0.291364 0.437047 0.145683 0.291364 0.145682h0.145682l13.40276 9.177977 3.35069 1.748186 6.847062 3.205008 1.602504 0.874093 1.602504 1.165457 1.456822 1.31114 0.291364 0.291364 0.145682 0.291364 0.145683 0.291365 0.145682 0.291364 0.145682 0.291364v1.456822l-0.145682 0.874093-0.291365 1.893868-1.456821 5.827287-0.291365 1.602504v2.185233l0.145682 0.145682v0.145682l0.145683 0.145682v0.145683l0.145682 0.145682 0.145682 0.145682h0.728411l0.145682-0.145682 0.145682-0.145682 0.291365-0.291365 0.145682-0.145682 0.437046-0.437046 0.291365-0.582729 0.72841-1.456822 1.31114-3.496372 1.748186-5.827287 2.622279-11.945938 2.622279-7.866838h0.874093l0.145683 0.291365 0.437046 0.874093 2.622279 3.642054 6.847062 8.74093 1.602504 2.476597 0.582729 1.019776-8.303884 1.748186-1.31114 1.311139 0.728411 0.291365 2.767962 0.728411 8.158201 1.602503 3.933419 0.291365 1.456822-0.145682 0.582729-0.145683 0.437046-0.145682 0.437047-0.145682 0.291364-0.145682 0.291364-0.145682 0.145682-0.145682 0.145683-0.145683 0.145682-0.145682 0.145682-0.145682 0.145682-0.145682v-1.31114l-0.145682-0.437046-0.145682-0.437047-0.582729-0.874093-3.059326-3.496372-12.820031-15.733675-1.311139-1.311139-2.767962-2.330915-1.165457-1.31114-0.582729-0.728411-0.582729-0.874093-0.291364-0.437046-0.291364-0.728411-0.145682-0.582729v-0.582728l0.145682-0.582729v-0.437047l0.145682-0.437046 0.145682-0.437047 0.874093-1.456821 0.582729-0.728411 0.437046-0.437047 0.145683-0.145682h0.72841l0.145683-0.145682 11.363209-1.165457 2.476597-0.145683 5.098876-0.728411 2.622279-0.145682h1.165458l0.582728 0.145682 0.437047 0.145683 0.728411 0.291364 2.03955 1.165457 0.728411 0.291365 0.291364 0.145682 0.437047 0.145682h1.456822l0.437046-0.145682 0.582729-0.145682 0.582729-0.291365 0.582728-0.291364 0.437047-0.437046 0.874093-0.874094 1.602504-1.893868 1.893868-2.330915 0.728411-1.019775 0.291364-0.582728 0.145682-0.291365 0.145683-0.437046v-0.874093l-0.145683-0.145683-0.145682-0.145682-0.145682-0.145682-0.145682-0.145682-0.291364-0.145682-0.145683-0.145682-0.437046-0.145683-0.874093-0.145682-0.728411-0.145682h-1.893868l-1.165458 0.145682-1.019775 0.291365-1.311139 0.437046-2.62228 1.31114-2.622279 1.311139-1.311139 0.582729-1.019775 0.291364-1.165458 0.145682h-6.264333l-2.039551 0.291365-7.284108 1.748186-2.039551 0.291364-0.874093 0.145682h-0.874093l-0.291364-0.145682-0.145683-0.145682-0.145682-0.145682-0.145682-0.145682-0.145682-0.145682-0.145682-0.145683-0.145682-0.145682-0.145683-0.437046-0.145682-0.291365-0.145682-0.728411-0.145682-0.874093v-1.893868l0.291364-3.496372 0.145682-1.31114-0.291364-2.913643-1.311139-5.681605-1.31114-5.827287-0.291364-3.059325v-0.728411l-0.145683-0.728411-0.145682-0.582729-0.291364-0.874093-0.291364-0.582729-0.437047-0.437046-0.582729-0.582729-0.728411-0.437046-0.72841-0.291365-0.728411-0.291364-0.728411-0.145682-0.728411-0.145682h-1.456822l-0.728411 0.145682-0.72841 0.145682-0.582729 0.291364-0.582729 0.291365-0.291364 0.145682-0.145682 0.145682-0.145683 0.145682-0.145682 0.145682-0.145682 0.291365-0.145682 0.145682v1.311139l0.145682 0.145683 0.145682 0.145682 0.437047 0.291364 1.748186 1.165458 0.874093 0.72841 0.437046 0.437047 0.291365 0.582729 0.291364 0.582728 1.456822 3.933419 1.019775 4.079101 1.019775 5.681605 0.728411 11.363209-4.807512-0.291364h-0.145682l-0.291364-0.291365-1.456822-1.456821-6.264333-7.866838-2.185233-3.205007-0.291364-0.437047v-1.019775l0.145682-0.437047 0.145682-0.874093 0.874093-1.748186 0.582729-1.165457 0.145682-0.582729 0.291364-0.728411v-1.165457l-0.145682-0.437047-0.145682-0.437046-1.019775 0.582728-0.437047 0.291365-0.582728 0.437046-0.437047 0.437047-0.291364 0.437046-0.291365 0.582729-0.437046 1.165457-0.145682 0.291365v0.145682l-0.145682 0.145682-0.145683 0.145682-0.145682 0.145682-0.145682 0.145683-0.145682 0.145682h-0.728411l-0.145682-0.145682-0.145682-0.145683-0.145683-0.145682-0.145682-0.291364-0.291364-0.437047-0.728411-1.456821-3.642054-7.429791-0.582729-1.602504-0.145682-0.728411v-1.165457l0.145682-0.291365 0.145682-0.145682 0.145682-0.145682 0.291365-0.291364 0.582728-0.437047 2.767962-1.748186 0.437046-0.437046 0.145682-0.145683 0.145683-0.145682v-1.165457l-0.145683-0.145682-0.145682-0.145683-0.145682-0.291364-0.291364-0.291364-0.291365-0.291365-0.582728-0.437046-0.582729-0.291364-0.437047-0.145683h-1.602503l-0.582729 0.145683-0.582729 0.145682-0.582729 0.291364-1.019775 0.582729-2.913643 2.03955-3.059326-4.807512-2.476597-5.535922-1.456822-2.767961-0.874093-1.165458-1.019775-1.165457-1.165457-1.019775-0.291365-0.145683-0.874093-0.437046-1.602504-0.582729-1.748186-0.291364h-1.748186l-0.291364 0.145682-0.437047 0.145682-0.291364 0.145682-0.291364 0.145682-0.291365 0.145683-0.145682 0.145682-0.145682 0.145682-0.145682 0.145682-0.145682 0.145682v0.291365l-0.145683 0.291364v1.165457l0.874094 1.602504 4.370465 2.767962z m40.936691 48.803528l0.145682-0.291364 0.145682-0.291365 0.145682-0.291364 0.291364-0.437047 0.291365-0.291364 0.728411-0.582729v0.291365l0.291364 2.03955v1.602504l-0.145682 0.291364v0.145682l-0.145682 0.145683h-0.874093l-0.145683-0.145683-0.145682-0.145682-0.145682-0.145682-0.145682-0.145682-0.145682-0.145682-0.145682-0.145682v-1.456822zM252.030161 198.127756l0.291364-0.582728 0.145682-0.145682 0.145682-0.437047 0.437047-2.03955 1.456822-8.158202 0.582728-2.185233 0.145683-0.437046 0.145682-0.291365 0.145682-0.291364v-0.145682h1.311139l0.145683 0.145682 0.145682 0.145682 0.145682 0.145682 0.145682 0.145683 0.291365 0.291364 0.145682 0.291364 0.291364 0.582729 0.145682 0.874093 0.145682 0.874093v0.728411l-3.787736 16.462086h-0.145682l-5.681605-2.185233 0.291364-0.582729 0.291365-0.437046 0.582728-0.728411 1.602504-1.602504 0.437047-0.437047z" fill="#005BAC" p-id="9979"></path><path d="M770.6587 159.813345l0.582728 1.019775 2.185233 3.059326 0.582729 1.019775 0.145682 0.437046 0.145682 0.437047v0.291364l0.145682 0.728411v1.456822l0.145682 0.728411v0.145682l0.145683 0.437046 0.145682 0.145683 0.145682 0.291364 0.145682 0.145682 0.145682 0.145682 0.145682 0.145682 0.145683 0.145683h1.019775l0.145682-0.145683 0.145682-0.145682 0.437047-0.291364 0.582728-0.582729 1.165458-1.311139 0.582728-0.582729 0.291365-0.291364 0.291364-0.145683 0.291364-0.145682 0.291365-0.145682h0.874093l5.244558 2.767961 0.874093 0.291365 1.748186 0.437046 5.244559 0.728411 1.602503 0.437047 0.874093 0.291364 1.165458 0.582729 1.019775 0.582728 0.728411 0.728411 1.602504 1.748186 0.437046 0.728411 0.291365 0.291365 0.437046 0.291364 0.437047 0.145682 0.582728 0.145682 0.437047 0.145682 1.165457 0.145683h4.66183l1.165457 0.145682 1.165458 0.145682 5.681605 1.748186h1.456821l2.622279-0.291364h1.165458l0.728411 0.145682-0.437047 0.728411-0.145682 0.437046-0.291364 1.019775-0.291365 1.019776-0.145682 0.582728-0.145682 0.437047-0.145682 0.145682-0.145682 0.291364-0.145683 0.145683-0.145682 0.145682h-1.311139l-2.039551-0.145682-7.575473-0.874093-2.476597-0.291365-4.370465-0.145682-1.893868 0.145682-0.874093 0.145682-0.582729 0.145683-0.291364 0.145682-0.145683 0.145682h-0.145682v0.145682h-0.145682v0.728411l0.145682 0.145682 1.456822 0.582729 4.224783 1.893868 1.165457 0.728411 0.437047 0.291364 5.244558 4.224783 4.370465 2.039551 0.291365 0.145682 0.437046 0.437046 1.019776 1.019776 0.582728 0.437046 0.437047 0.291365 0.145682 0.145682 0.291364 0.145682h0.874093l0.291365-0.145682 0.728411-0.437047 1.311139-0.874093 1.456822-1.311139 1.456822-1.602504 1.748186-2.622279 0.728411-1.31114 0.437046-1.019775 0.291364-1.165458 0.145683-1.019775v-2.03955l-0.145683-0.728411-0.291364-0.728411-0.437046-1.019775-0.582729-0.874093-0.874093-0.874093-0.582729-0.582729-1.602504-1.019775-1.893868-1.019775-1.456822-0.582729-3.642054-1.165458 0.291364-0.437046 0.291365-0.291364 0.72841-0.582729 1.456822-0.874093 3.496372-1.893868 12.965714-5.681605 3.35069-2.039551 1.311139-1.019775 0.582729-0.582729 0.145682-0.291364 0.291365-0.437046 0.145682-0.29136" fill="#005BAC" p-id="9980"></path></svg>